<svg width="16" height="16" viewBox="0 0 16 16" fill="none" xmlns="http://www.w3.org/2000/svg">
<path d="M11.8287 5.21352C12.1116 5.42188 12.172 5.82014 11.9637 6.10305C11.8018 6.3228 11.64 6.53168 11.498 6.71363C11.2146 7.07677 10.8244 7.56321 10.4004 8.05142C9.97925 8.53652 9.51222 9.03803 9.0763 9.42325C8.85904 9.61519 8.63447 9.79173 8.41549 9.92374C8.214 10.0452 7.93713 10.1791 7.63424 10.1791C7.33135 10.1791 7.05441 10.0452 6.85293 9.92374C6.63395 9.79173 6.40944 9.61519 6.19218 9.42325C5.7562 9.03803 5.28921 8.53652 4.86802 8.05142C4.44409 7.56321 4.0539 7.07677 3.77046 6.71363C3.62849 6.53168 3.46661 6.3228 3.30476 6.10306C3.0964 5.82014 3.15684 5.42188 3.43975 5.21352C3.55347 5.12976 3.68584 5.08945 3.81702 5.08955H7.63424H11.4514C11.5826 5.08945 11.715 5.12976 11.8287 5.21352Z" fill="#F6F8FC"/>
</svg>
