<svg width="23" height="23" viewBox="0 0 23 23" fill="none" xmlns="http://www.w3.org/2000/svg">
<path d="M16.223 10.3107C16.223 9.98075 16.223 9.81585 16.2726 9.66889C16.4169 9.24179 16.7973 9.07605 17.1784 8.90248C17.6067 8.70736 17.8209 8.60981 18.0331 8.59264C18.2741 8.57315 18.5154 8.62507 18.7214 8.74064C18.9944 8.89385 19.1848 9.185 19.3797 9.42175C20.28 10.5152 20.73 11.062 20.8948 11.6649C21.0277 12.1514 21.0277 12.6602 20.8948 13.1467C20.6546 14.0261 19.8956 14.7633 19.3338 15.4456C19.0465 15.7946 18.9028 15.9691 18.7214 16.0709C18.5154 16.1865 18.2741 16.2384 18.0331 16.219C17.8209 16.2018 17.6067 16.1043 17.1784 15.9091C16.7973 15.7355 16.4169 15.5699 16.2726 15.1427C16.223 14.9957 16.223 14.8308 16.223 14.5009V10.3107Z" stroke="#F6F8FC" stroke-width="1.90858"/>
<path d="M6.68003 10.3107C6.68003 9.89543 6.66837 9.52213 6.33258 9.2301C6.21045 9.12389 6.04853 9.05013 5.7247 8.90264C5.29632 8.70751 5.08212 8.60996 4.86989 8.59279C4.23314 8.54129 3.89056 8.97589 3.52336 9.4219C2.6231 10.5153 2.17297 11.0621 2.00825 11.665C1.87534 12.1516 1.87534 12.6604 2.00825 13.1469C2.24849 14.0263 3.00746 14.7634 3.56924 15.4458C3.92336 15.8759 4.26163 16.2683 4.86989 16.2191C5.08212 16.202 5.29632 16.1043 5.7247 15.9093C6.04853 15.7618 6.21045 15.688 6.33258 15.5818C6.66837 15.2898 6.68003 14.9165 6.68003 14.5011V10.3107Z" stroke="#F6F8FC" stroke-width="1.90858"/>
<path d="M4.77148 8.58863C4.77148 5.42638 7.76225 2.86288 11.4515 2.86288C15.1408 2.86288 18.1316 5.42638 18.1316 8.58863" stroke="#F6F8FC" stroke-width="1.90858" stroke-linecap="square" stroke-linejoin="round"/>
<path d="M18.1315 16.223V16.9864C18.1315 18.6729 16.4225 20.0401 14.3143 20.0401H12.4058" stroke="#F6F8FC" stroke-width="1.90858" stroke-linecap="round" stroke-linejoin="round"/>
</svg>
